/* XPM */
static char * nle_xpm[] = {
"48 48 66 1",
" 	c None",
".	c #9E9A9E",
"+	c #868286",
"@	c #717171",
"#	c #303030",
"$	c #080808",
"%	c #000000",
"&	c #383838",
"*	c #A6A2AE",
"=	c #696969",
"-	c #AEAAAE",
";	c #515151",
">	c #414141",
",	c #181818",
"'	c #413428",
")	c #202020",
"!	c #494949",
"~	c #8E8A8E",
"{	c #BEBABE",
"]	c #281C10",
"^	c #969296",
"/	c #616161",
"(	c #693C00",
"_	c #8E5100",
":	c #D77900",
"<	c #282828",
"[	c #594118",
"}	c #F78E08",
"|	c #101010",
"1	c #080400",
"2	c #C7C3C7",
"3	c #595959",
"4	c #A6A2A6",
"5	c #DFD3DF",
"6	c #D7D3D7",
"7	c #101810",
"8	c #B6B2B6",
"9	c #C7C7C7",
"0	c #181018",
"a	c #E7E7E7",
"b	c #FFFBFF",
"c	c #F7F3F7",
"d	c #EFEBEF",
"e	c #D7DBD7",
"f	c #F7F7F7",
"g	c #282028",
"h	c #CFCBCF",
"i	c #717971",
"j	c #202820",
"k	c #DFDBDF",
"l	c #797979",
"m	c #414541",
"n	c #868686",
"o	c #EFE3EF",
"p	c #595D59",
"q	c #716D69",
"r	c #96969E",
"s	c #303830",
"t	c #9E9E9E",
"u	c #968A96",
"v	c #1C1C1C",
"w	c #595659",
"x	c #616561",
"y	c #515551",
"z	c #514951",
"A	c #797179",
"                                                ",
"                    .+++.                       ",
"                  @#$%%%$&.                     ",
"                *=%%+-;%>>,.                    ",
"              +;'$)!~~{%]>#!                    ",
"          ^/'(_:_<##.-+%%)&,.        %%% %%%%   ",
"         @[:}}}:%|,))|%%%%<$@        %%% %%%    ",
"         [}:_(1%%%%%1%%%%%|$#         %%%%%%    ",
"         ^;>](_%%%%%%%%%%%%%<         %%%%%%    ",
"              =%%%%%%%%%%%%%)         %%%%%%    ",
"               )%%%%%+23%%%%%@        %% %%%    ",
"              ^$,%%%456^%%%|&7.      %%% %%%    ",
"              <=68+9666{%%%,;0;      %%% %%%    ",
"             /,9abbcdad6~%$#;&7.                ",
"      %      !=abbbbbbbe{%&;!>0!                ",
"      %    .#$.fbbbbbbbb.$!<<!>%+     %%%%      ",
"      %    >g&*dbbbbbbbh||&1)&;0)     %%%       ",
"      %   3)i>4abbbbbb+|$<)%%<;>%~     %%       ",
"      %  !ji;>4kbbbbb-%|>)%%%,>!%#     %%       ",
"      % ;l%%);^5fbbbb)|!)%%%%%#;#$.    %%       ",
"      %%%%%%)i+4kbbb-%&,%%%%%%|m!%/    %%  %%   ",
"      %<94+%);+nhbbb;|#%%%%%%%%<;$|   %%%  %%   ",
"      %%%%%%)>8{-obk%,|%%%%%p&%%;,%+  %%%%%%%   ",
"      %%%%%%)=hkked{%%%%%%%%q/%%&&%#            ",
"     +%%%%%%|=eakkd~%%%%%%%%q~%%$!%%^           ",
"     !%255^%%labffc+%%%%%%|g/r$%%,)%@ %%%%%%%%  ",
"     <%dbbh%s.abbbb+%%%%%%)^.^)%%%>%> %%%   %%  ",
"     %%bbbk%&8kbbbb+%%%%%|@..t#%%%#$%  %% % %%  ",
"    ~#%bbba%&4kbbbb+%%%%%#^^88;%%%$%%~ %%%%     ",
"    +>%%b%e%<lkbbbb{%%%%%3^.6hi%%%%%%; %%%%     ",
"    @/%bk6u%<q6cbbb{%%%%|@.266.7%%%%%> %%   %   ",
"    ;>%%h%~%#!2abbbd|%%%|+^666{;%%%%%v%%%   %%  ",
"    @;%5@. %;>86bbbb>%%%<+-6666@%%%%%%%%%%%%%%  ",
"    .|%%+% %~,t6dbbb@%%%<+86666@%%%%%%w         ",
"     $%^   % |/heccb6%%%&^-6666n#%%%%%;         ",
"     #%^   % =)8665d63%%<~.66664m%%%%%<         ",
"     ~%{   %  )l66e66{g%<.r6666-x|%%%%)         ",
"      %%%%%%  @$^6k666{gq-{6666h@)%%%%%         ",
"               #'^66656666666666@#%%%%%.        ",
"               ^$$~hk66666666666@!%%%%%+        ",
"                +$$q!9663-66666{~3|%%,#=        ",
"                 ;%>q@r^>,^26662+=>%%);,^       ",
"             ~;;;#+>,y+z)%0i^8h{+l;#%%&!#@      ",
"             ,xy/{2^~#7;3%%%7>y;><,%%%%%,%)~    ",
"             =<y|+l@^*>/+4=A=;m//s^;)%%%%%%%+   ",
"              ^;<))!gmpkkh{{{{-.+@@  .+=;;;;.   ",
"                 ..  ^;!!!!!!!))|<@             ",
"                                                "};
